# xmcd
#
# Track frame offsets: 
#        150
#        19091
#        34232
#        46379
#        75659
#        88183
#        106653
#        119306
#        137278
#        153451
#        175530
#        192218
#
# Disc length: 2809 seconds
#
# Revision: 0
# Processed by: cddbd v1.5.2PL0 Copyright (c) Steve Scherf et al.
# Submitted via: ExactAudioCopy v0.99pb5
#
DISCID=8a0af70c
DTITLE=Lost Disciples - The First Stone
DYEAR=2000
DGENRE=Punk Rock
TTITLE0=Lost Disciples
TTITLE1=Mystery Girl
TTITLE2=Exit Door
TTITLE3=Dark Conversations
TTITLE4=Wild Card
TTITLE5=Subterranean Citizens
TTITLE6=Beware The Passengers
TTITLE7=New Language Beat
TTITLE8=Ravenstone
TTITLE9=Danse Macabre
TTITLE10=Celebration Of Sin
TTITLE11=Wings Of Stone
EXTD=
EXTT0=
EXTT1=
EXTT2=
EXTT3=
EXTT4=
EXTT5=
EXTT6=
EXTT7=
EXTT8=
EXTT9=
EXTT10=
EXTT11=
PLAYORDER=
